<svg width="32" height="32" viewBox="0 0 32 32" fill="none" xmlns="http://www.w3.org/2000/svg">
<path d="M24 8L8 8" stroke="white" stroke-width="1.5" stroke-linecap="round" stroke-linejoin="round"/>
<path d="M8 24L24 24" stroke="white" stroke-width="1.5" stroke-linecap="round" stroke-linejoin="round"/>
<path d="M8 12.2667L8 19.7333H14.4L14.4 12.2667L8 12.2667Z" stroke="white" stroke-width="1.5" stroke-linecap="round" stroke-linejoin="round"/>
<path d="M17.6 12.2667V19.7333H24V12.2667L17.6 12.2667Z" stroke="white" stroke-width="1.5" stroke-linecap="round" stroke-linejoin="round"/>
<path d="M9.60001 10.4C9.65275 10.4 9.70431 10.3844 9.74816 10.3551C9.79202 10.3258 9.82619 10.2841 9.84638 10.2354C9.86656 10.1867 9.87184 10.133 9.86155 10.0813C9.85126 10.0296 9.82587 9.98207 9.78857 9.94477C9.75128 9.90748 9.70376 9.88208 9.65203 9.87179C9.60031 9.8615 9.54669 9.86678 9.49796 9.88697C9.44923 9.90715 9.40759 9.94133 9.37828 9.98518C9.34898 10.029 9.33334 10.0806 9.33334 10.1333C9.33334 10.2041 9.36144 10.2719 9.41145 10.3219C9.46146 10.3719 9.52929 10.4 9.60001 10.4Z" stroke="white" stroke-width="1.5" stroke-linecap="round" stroke-linejoin="round"/>
<path d="M13.8667 10.4C13.9194 10.4 13.971 10.3844 14.0148 10.3551C14.0587 10.3258 14.0929 10.2841 14.113 10.2354C14.1332 10.1867 14.1385 10.133 14.1282 10.0813C14.1179 10.0296 14.0925 9.98207 14.0552 9.94477C14.0179 9.90748 13.9704 9.88208 13.9187 9.87179C13.867 9.8615 13.8134 9.86678 13.7646 9.88697C13.7159 9.90715 13.6742 9.94133 13.6449 9.98518C13.6156 10.029 13.6 10.0806 13.6 10.1333C13.6 10.2041 13.6281 10.2719 13.6781 10.3219C13.7281 10.3719 13.7959 10.4 13.8667 10.4Z" stroke="white" stroke-width="1.5" stroke-linecap="round" stroke-linejoin="round"/>
<path d="M18.1333 10.4C18.1861 10.4 18.2376 10.3844 18.2815 10.3551C18.3253 10.3258 18.3595 10.2841 18.3797 10.2354C18.3999 10.1867 18.4052 10.133 18.3949 10.0813C18.3846 10.0296 18.3592 9.98207 18.3219 9.94477C18.2846 9.90748 18.2371 9.88208 18.1854 9.87179C18.1336 9.8615 18.08 9.86678 18.0313 9.88697C17.9826 9.90715 17.9409 9.94133 17.9116 9.98518C17.8823 10.029 17.8667 10.0806 17.8667 10.1333C17.8667 10.2041 17.8948 10.2719 17.9448 10.3219C17.9948 10.3719 18.0626 10.4 18.1333 10.4Z" stroke="white" stroke-width="1.5" stroke-linecap="round" stroke-linejoin="round"/>
<path d="M22.4 10.4C22.4527 10.4 22.5043 10.3844 22.5482 10.3551C22.592 10.3258 22.6262 10.2841 22.6464 10.2354C22.6665 10.1867 22.6718 10.133 22.6615 10.0813C22.6513 10.0296 22.6259 9.98207 22.5886 9.94477C22.5513 9.90748 22.5037 9.88208 22.452 9.87179C22.4003 9.8615 22.3467 9.86678 22.2979 9.88697C22.2492 9.90715 22.2076 9.94133 22.1783 9.98518C22.149 10.029 22.1333 10.0806 22.1333 10.1333C22.1333 10.2041 22.1614 10.2719 22.2114 10.3219C22.2614 10.3719 22.3293 10.4 22.4 10.4Z" stroke="white" stroke-width="1.5" stroke-linecap="round" stroke-linejoin="round"/>
<path d="M9.60001 22.1333C9.65275 22.1333 9.70431 22.1177 9.74816 22.0884C9.79202 22.0591 9.82619 22.0174 9.84638 21.9687C9.86656 21.92 9.87184 21.8664 9.86155 21.8146C9.85126 21.7629 9.82587 21.7154 9.78857 21.6781C9.75128 21.6408 9.70376 21.6154 9.65203 21.6051C9.60031 21.5948 9.54669 21.6001 9.49796 21.6203C9.44923 21.6405 9.40759 21.6747 9.37828 21.7185C9.34898 21.7624 9.33334 21.8139 9.33334 21.8667C9.33334 21.9374 9.36144 22.0052 9.41145 22.0552C9.46146 22.1052 9.52929 22.1333 9.60001 22.1333Z" stroke="white" stroke-width="1.5" stroke-linecap="round" stroke-linejoin="round"/>
<path d="M13.8667 22.1333C13.9194 22.1333 13.971 22.1177 14.0148 22.0884C14.0587 22.0591 14.0929 22.0174 14.113 21.9687C14.1332 21.92 14.1385 21.8664 14.1282 21.8146C14.1179 21.7629 14.0925 21.7154 14.0552 21.6781C14.0179 21.6408 13.9704 21.6154 13.9187 21.6051C13.867 21.5948 13.8134 21.6001 13.7646 21.6203C13.7159 21.6405 13.6742 21.6747 13.6449 21.7185C13.6156 21.7624 13.6 21.8139 13.6 21.8667C13.6 21.9374 13.6281 22.0052 13.6781 22.0552C13.7281 22.1052 13.7959 22.1333 13.8667 22.1333Z" stroke="white" stroke-width="1.5" stroke-linecap="round" stroke-linejoin="round"/>
<path d="M18.1333 22.1333C18.1861 22.1333 18.2376 22.1177 18.2815 22.0884C18.3253 22.0591 18.3595 22.0174 18.3797 21.9687C18.3999 21.92 18.4052 21.8664 18.3949 21.8146C18.3846 21.7629 18.3592 21.7154 18.3219 21.6781C18.2846 21.6408 18.2371 21.6154 18.1854 21.6051C18.1336 21.5948 18.08 21.6001 18.0313 21.6203C17.9826 21.6405 17.9409 21.6747 17.9116 21.7185C17.8823 21.7624 17.8667 21.8139 17.8667 21.8667C17.8667 21.9374 17.8948 22.0052 17.9448 22.0552C17.9948 22.1052 18.0626 22.1333 18.1333 22.1333Z" stroke="white" stroke-width="1.5" stroke-linecap="round" stroke-linejoin="round"/>
<path d="M22.4 22.1333C22.4527 22.1333 22.5043 22.1177 22.5482 22.0884C22.592 22.0591 22.6262 22.0174 22.6464 21.9687C22.6665 21.92 22.6718 21.8664 22.6615 21.8146C22.6513 21.7629 22.6259 21.7154 22.5886 21.6781C22.5513 21.6408 22.5037 21.6154 22.452 21.6051C22.4003 21.5948 22.3467 21.6001 22.2979 21.6203C22.2492 21.6405 22.2076 21.6747 22.1783 21.7185C22.149 21.7624 22.1333 21.8139 22.1333 21.8667C22.1333 21.9374 22.1614 22.0052 22.2114 22.0552C22.2614 22.1052 22.3293 22.1333 22.4 22.1333Z" stroke="white" stroke-width="1.5" stroke-linecap="round" stroke-linejoin="round"/>
</svg>
