<svg width="32" height="32" viewBox="0 0 32 32" fill="none" xmlns="http://www.w3.org/2000/svg">
<path d="M9.60004 8.38461L9.60004 23.6154L20.7693 23.6154V8.38461L9.60004 8.38461Z" stroke="white" stroke-width="1.5" stroke-linecap="round" stroke-linejoin="round"/>
<path d="M9.60004 18.5385L20.7693 18.5385" stroke="white" stroke-width="1.5" stroke-linecap="round" stroke-linejoin="round"/>
<path d="M15.6923 20.5692V21.5846" stroke="white" stroke-width="1.5" stroke-linecap="round" stroke-linejoin="round"/>
<path d="M17.7231 20.5692V21.5846" stroke="white" stroke-width="1.5" stroke-linecap="round" stroke-linejoin="round"/>
<path d="M12.9 21.0769C12.9 21.1271 12.9149 21.1762 12.9428 21.2179C12.9707 21.2597 13.0103 21.2922 13.0567 21.3114C13.1031 21.3306 13.1542 21.3357 13.2034 21.3259C13.2526 21.3161 13.2979 21.2919 13.3334 21.2564C13.3689 21.2209 13.393 21.1757 13.4028 21.1264C13.4126 21.0772 13.4076 21.0261 13.3884 20.9798C13.3692 20.9334 13.3366 20.8937 13.2949 20.8658C13.2532 20.8379 13.2041 20.8231 13.1539 20.8231C13.0865 20.8231 13.022 20.8498 12.9744 20.8974C12.9268 20.945 12.9 21.0096 12.9 21.0769" stroke="white" stroke-width="1.5" stroke-linecap="round" stroke-linejoin="round"/>
<path d="M22.8001 9.39999L20.7693 11.4308" stroke="white" stroke-width="1.5" stroke-linecap="round" stroke-linejoin="round"/>
<path d="M22.8001 22.6L20.7693 20.5692" stroke="white" stroke-width="1.5" stroke-linecap="round" stroke-linejoin="round"/>
</svg>
